<svg xmlns="http://www.w3.org/2000/svg"><symbol id="i-phone" viewBox="0 0 256 256"><path fill="currentColor" d="m222.37 158.46l-47.11-21.11l-.13-.06a16 16 0 0 0-15.17 1.4a8 8 0 0 0-.75.56L134.87 160c-15.42-7.49-31.34-23.29-38.83-38.51l20.78-24.71c.2-.25.39-.5.57-.77a16 16 0 0 0 1.32-15.06v-.12L97.54 33.64a16 16 0 0 0-16.62-9.52A56.26 56.26 0 0 0 32 80c0 79.4 64.6 144 144 144a56.26 56.26 0 0 0 55.88-48.92a16 16 0 0 0-9.51-16.62M176 208A128.14 128.14 0 0 1 48 80a40.2 40.2 0 0 1 34.87-40a.6.6 0 0 0 0 .12l21 47l-20.67 24.74a6 6 0 0 0-.57.77a16 16 0 0 0-1 15.7c9.06 18.53 27.73 37.06 46.46 46.11a16 16 0 0 0 15.75-1.14a8 8 0 0 0 .74-.56L168.89 152l47 21.05h.11A40.21 40.21 0 0 1 176 208"/></symbol><symbol id="i-arrow-right" viewBox="0 0 256 256"><path fill="currentColor" d="m221.66 133.66l-72 72a8 8 0 0 1-11.32-11.32L196.69 136H40a8 8 0 0 1 0-16h156.69l-58.35-58.34a8 8 0 0 1 11.32-11.32l72 72a8 8 0 0 1 0 11.32"/></symbol><symbol id="i-arrow-up-right" viewBox="0 0 256 256"><path fill="currentColor" d="M200 64v104a8 8 0 0 1-16 0V83.31L69.66 197.66a8 8 0 0 1-11.32-11.32L172.69 72H88a8 8 0 0 1 0-16h104a8 8 0 0 1 8 8"/></symbol><symbol id="i-map-pin" viewBox="0 0 256 256"><path fill="currentColor" d="M128 64a40 40 0 1 0 40 40a40 40 0 0 0-40-40m0 64a24 24 0 1 1 24-24a24 24 0 0 1-24 24m0-112a88.1 88.1 0 0 0-88 88c0 31.4 14.51 64.68 42 96.25a254.2 254.2 0 0 0 41.45 38.3a8 8 0 0 0 9.18 0a254.2 254.2 0 0 0 41.37-38.3c27.45-31.57 42-64.85 42-96.25a88.1 88.1 0 0 0-88-88m0 206c-16.53-13-72-60.75-72-118a72 72 0 0 1 144 0c0 57.23-55.47 105-72 118"/></symbol><symbol id="i-facebook" viewBox="0 0 24 24"><path fill="currentColor" d="M9.101 23.691v-7.98H6.627v-3.667h2.474v-1.58c0-4.085 1.848-5.978 5.858-5.978c.401 0 .955.042 1.468.103a9 9 0 0 1 1.141.195v3.325a9 9 0 0 0-.653-.036a27 27 0 0 0-.733-.009c-.707 0-1.259.096-1.675.309a1.7 1.7 0 0 0-.679.622c-.258.42-.374.995-.374 1.752v1.297h3.919l-.386 2.103l-.287 1.564h-3.246v8.245C19.396 23.238 24 18.179 24 12.044c0-6.627-5.373-12-12-12s-12 5.373-12 12c0 5.628 3.874 10.35 9.101 11.647"/></symbol></svg>
